<svg width="142" height="65" viewBox="0 0 142 65" fill="none" xmlns="http://www.w3.org/2000/svg">
<path d="M26.5903 36.049C26.4133 42.362 20.9263 44.368 16.7373 44.368C9.18529 44.368 6.88429 39.707 6.88429 35.754C6.88429 32.45 8.47729 27.376 14.7903 26.432C15.0853 24.544 15.8523 23.836 16.8553 23.836C17.7993 23.836 18.6253 24.367 19.0383 26.432C23.9353 27.317 26.7673 31.034 26.5903 36.049ZM19.6873 48.085V51.33H30.3073C32.1363 51.33 32.9623 52.392 32.9623 54.044C32.9623 55.46 32.1363 56.758 30.4253 56.758H2.93129C1.22029 56.758 0.394287 55.46 0.394287 54.044C0.394287 52.392 1.22029 51.33 3.04929 51.33H13.7873V48.321C13.7873 46.256 15.1443 45.784 16.7373 45.784C18.1533 45.784 19.6873 46.256 19.6873 48.085ZM21.2213 35.223C21.2213 32.804 19.2743 31.211 16.8553 31.211C15.5573 31.211 12.2533 31.683 12.2533 35.341C12.2533 38.35 14.3773 39.353 16.6783 39.353C19.3333 39.353 21.2213 37.878 21.2213 35.223Z" fill="black"/>
<path d="M43.297 61.065V50.091C43.297 47.79 44.772 46.846 46.365 46.846H59.935C61.528 46.846 63.003 47.79 63.003 50.091V61.065C63.003 63.366 61.528 64.369 59.935 64.369H46.365C44.89 64.369 43.297 63.425 43.297 61.065ZM50.2 34.928L54.684 39.117C55.864 40.238 56.1 42.185 54.861 43.306C53.74 44.309 52.029 44.132 50.613 42.775L46.483 38.999C45.834 38.468 45.48 38.645 45.067 39.058L40.17 43.306C38.99 44.427 37.102 44.722 35.981 43.483C34.506 41.772 35.332 40.238 36.512 39.294C39.521 36.757 43.592 33.394 46.011 30.031C46.424 29.5 47.132 28.025 45.775 28.025H39.226C37.338 28.025 36.217 27.199 36.217 25.252C36.217 23.541 37.515 22.538 39.108 22.538H48.43C51.675 22.538 52.973 24.603 52.914 27.022C52.855 29.323 51.262 31.742 50.023 33.394C49.374 34.279 49.551 34.279 50.2 34.928ZM65.54 21.476V42.539C65.54 44.191 64.242 45.076 62.649 45.017C61.174 44.958 59.817 44.309 59.817 42.716V35.754C58.46 35.931 57.339 35.931 56.395 35.754C55.038 35.518 54.684 34.456 54.684 33.335C54.684 32.332 55.097 31.152 56.041 30.739C56.749 30.503 58.224 30.385 59.817 30.208V23.01C58.932 22.361 58.283 21.476 58.283 20.532C58.283 18.88 59.522 17.641 61.174 17.641C63.593 17.641 65.009 19.411 65.54 21.476ZM55.923 52.156H50.377C49.61 52.156 48.961 52.392 48.961 53.572V58.056C48.961 58.764 49.61 59 50.377 59H55.923C56.69 59 57.339 58.764 57.339 58.056V53.572C57.339 52.392 56.69 52.156 55.923 52.156Z" fill="black"/>
<path d="M70.0309 47.023V34.279C70.0309 31.978 71.5059 31.034 73.0989 31.034H85.1349C86.7279 31.034 88.2029 31.978 88.2029 34.279V47.023C88.2029 49.324 86.7279 50.327 85.1349 50.327H73.0989C71.6239 50.327 70.0309 49.383 70.0309 47.023ZM101.183 27.317V56.345C101.183 57.997 99.8849 58.882 98.2919 58.823C96.8169 58.764 95.4599 58.115 95.4599 56.522V43.011H92.6279C90.5629 43.011 89.7369 41.595 89.7369 40.12C89.7369 38.704 90.6809 37.17 92.6279 37.17H95.4599V28.851C94.5749 28.202 93.9259 27.317 93.9259 26.373C93.9259 24.721 95.1649 23.482 96.8169 23.482C99.2359 23.482 100.652 25.252 101.183 27.317ZM81.1229 36.344H77.1109C76.3439 36.344 75.6949 36.58 75.6949 37.76V44.014C75.6949 44.722 76.3439 44.958 77.1109 44.958H81.1229C81.8899 44.958 82.5389 44.722 82.5389 44.014V37.76C82.5389 36.58 81.8899 36.344 81.1229 36.344Z" fill="black"/>
<path fill-rule="evenodd" clip-rule="evenodd" d="M54.684 39.117C55.864 40.238 56.1 42.185 54.861 43.306C53.74 44.309 52.029 44.132 50.613 42.775L46.483 38.999C45.834 38.468 45.48 38.645 45.067 39.058L40.17 43.306C38.99 44.427 37.102 44.722 35.981 43.483C34.506 41.772 35.332 40.238 36.512 39.294L36.9411 38.9325C39.8983 36.4423 43.7052 33.2366 46.011 30.031C46.424 29.5 47.132 28.025 45.775 28.025H39.226C37.338 28.025 36.217 27.199 36.217 25.252C36.217 23.541 37.515 22.538 39.108 22.538H48.43C51.675 22.538 52.973 24.603 52.914 27.022C52.855 29.323 51.262 31.742 50.023 33.394C49.4401 34.1889 49.5235 34.2698 50.0168 34.7483L50.0179 34.7494C50.0736 34.8033 50.1344 34.8623 50.2 34.928L54.684 39.117ZM50.339 34.7842C50.2678 34.7129 50.2054 34.6525 50.1501 34.5989C50.0728 34.524 50.0091 34.4623 49.9538 34.4028C49.8608 34.3027 49.8294 34.2466 49.8196 34.2045C49.8117 34.17 49.8117 34.1153 49.866 34.0022C49.9216 33.8862 50.022 33.7336 50.1837 33.513M50.339 34.7842L54.8218 38.972C56.0628 40.151 56.3427 42.2351 54.9952 43.4543L54.9944 43.455C53.7701 44.5504 51.9395 44.3221 50.4763 42.921C50.4757 42.9204 50.4752 42.9199 50.4746 42.9194L46.3522 39.1504C46.0481 38.9026 45.8535 38.854 45.7129 38.8727C45.5628 38.8927 45.4121 38.9957 45.2084 39.1994L45.2034 39.2044L40.3045 43.4541C39.0763 44.618 37.0558 44.969 35.8327 43.6172L35.8295 43.6136C35.0568 42.7173 34.8696 41.8419 35.0563 41.0547C35.2398 40.2809 35.7764 39.6268 36.3851 39.1394M65.74 21.4507V42.539C65.74 43.4224 65.3905 44.1152 64.8171 44.5756C64.2482 45.0323 63.4752 45.2477 62.6416 45.2168C61.8816 45.1864 61.1308 45.0039 60.5647 44.6053C59.9893 44.2 59.617 43.5792 59.617 42.716V35.9804C58.3473 36.1305 57.2767 36.1226 56.3594 35.9508C55.6279 35.8232 55.1483 35.4667 54.8586 34.9784C54.5744 34.4993 54.484 33.9123 54.484 33.335C54.484 32.8083 54.5921 32.233 54.8274 31.7308C55.0629 31.2284 55.4324 30.787 55.9609 30.5557L55.9692 30.5521L55.9778 30.5492C56.3533 30.4241 56.9179 30.3338 57.5726 30.2529C57.9815 30.2023 58.4351 30.1544 58.9101 30.1043C59.1416 30.0798 59.3781 30.0549 59.617 30.0288V23.1102C58.7486 22.4487 58.083 21.5369 58.083 20.532C58.083 18.7695 59.4116 17.441 61.174 17.441C63.7188 17.441 65.1899 19.3113 65.7337 21.4262L65.74 21.4507ZM59.817 23.01C58.932 22.361 58.283 21.476 58.283 20.532C58.283 18.88 59.522 17.641 61.174 17.641C63.593 17.641 65.009 19.411 65.54 21.476V42.539C65.54 44.191 64.242 45.076 62.649 45.017C61.174 44.958 59.817 44.309 59.817 42.716V35.754C59.7498 35.7628 59.6831 35.7711 59.617 35.779C58.3494 35.9305 57.2922 35.9222 56.395 35.754C55.038 35.518 54.684 34.456 54.684 33.335C54.684 32.332 55.097 31.152 56.041 30.739C56.6148 30.5477 57.6923 30.434 58.9282 30.3035C59.2173 30.273 59.515 30.2415 59.817 30.208V23.01ZM101.383 27.2917V56.345C101.383 57.2284 101.033 57.9212 100.46 58.3816C99.8911 58.8383 99.1181 59.0537 98.2845 59.0228C97.5245 58.9924 96.7737 58.8099 96.2076 58.4113C95.6322 58.006 95.2599 57.3852 95.2599 56.522V43.211H92.6279C91.546 43.211 90.7646 42.8379 90.2566 42.2493C89.753 41.6657 89.5369 40.8922 89.5369 40.12C89.5369 39.3701 89.7864 38.5849 90.3003 37.984C90.8181 37.3786 91.5966 36.97 92.6279 36.97H95.2599V28.9512C94.3915 28.2897 93.7259 27.3779 93.7259 26.373C93.7259 24.6105 95.0545 23.282 96.8169 23.282C99.3617 23.282 100.833 25.1523 101.377 27.2672L101.383 27.2917ZM95.4599 28.851V37.17H92.6279C90.6809 37.17 89.7369 38.704 89.7369 40.12C89.7369 41.595 90.5629 43.011 92.6279 43.011H95.4599V56.522C95.4599 58.115 96.8169 58.764 98.2919 58.823C99.8849 58.882 101.183 57.997 101.183 56.345V27.317C100.652 25.252 99.2359 23.482 96.8169 23.482C95.1649 23.482 93.9259 24.721 93.9259 26.373C93.9259 27.317 94.5749 28.202 95.4599 28.851ZM23.28 42.7418C21.3203 44.0608 18.8589 44.568 16.7373 44.568C12.9182 44.568 10.3964 43.3879 8.83132 41.6784C7.26988 39.973 6.68434 37.7664 6.68434 35.754C6.68434 34.0739 7.08868 31.9382 8.30303 30.0978C9.50353 28.2784 11.4877 26.7608 14.6166 26.2566C14.7713 25.3693 15.0372 24.7255 15.4055 24.2958C15.8005 23.835 16.3002 23.636 16.8553 23.636C17.3695 23.636 17.8685 23.7829 18.2901 24.2209C18.6862 24.6326 18.9969 25.2841 19.2069 26.26C21.6359 26.7275 23.5672 27.8897 24.8749 29.5688C26.2057 31.2778 26.88 33.5084 26.7902 36.0553C26.6997 39.2786 25.2487 41.4167 23.28 42.7418ZM26.5903 36.049C26.4133 42.362 20.9263 44.368 16.7373 44.368C9.18534 44.368 6.88434 39.707 6.88434 35.754C6.88434 32.45 8.47733 27.376 14.7903 26.432C15.0853 24.544 15.8523 23.836 16.8553 23.836C17.7993 23.836 18.6253 24.367 19.0383 26.432C23.9353 27.317 26.7673 31.034 26.5903 36.049ZM19.6873 51.33V48.085C19.6873 46.256 18.1533 45.784 16.7373 45.784C15.1443 45.784 13.7873 46.256 13.7873 48.321V51.33H3.04934C1.22034 51.33 0.394336 52.392 0.394336 54.044C0.394336 55.46 1.22034 56.758 2.93134 56.758H30.4253C32.1363 56.758 32.9623 55.46 32.9623 54.044C32.9623 52.392 32.1363 51.33 30.3073 51.33H19.6873ZM13.5873 51.13H3.04934C2.09583 51.13 1.37199 51.4079 0.888912 51.9319C0.408477 52.4531 0.194336 53.1873 0.194336 54.044C0.194336 54.7886 0.411333 55.5157 0.867937 56.0605C1.32854 56.6099 2.02024 56.958 2.93134 56.958H30.4253C31.3364 56.958 32.0281 56.6099 32.4887 56.0605C32.9453 55.5157 33.1623 54.7886 33.1623 54.044C33.1623 53.1873 32.9482 52.4531 32.4678 51.9319C31.9847 51.4079 31.2608 51.13 30.3073 51.13H19.8873V48.085C19.8873 47.1028 19.4693 46.4624 18.8485 46.0785C18.2424 45.7036 17.4615 45.584 16.7373 45.584C15.9287 45.584 15.1401 45.7022 14.5504 46.1142C13.9459 46.5365 13.5873 47.2402 13.5873 48.321V51.13ZM21.0213 35.223C21.0213 32.9361 19.1869 31.411 16.8553 31.411C16.2231 31.411 15.1131 31.5271 14.1682 32.0771C13.2383 32.6184 12.4533 33.5868 12.4533 35.341C12.4533 36.7931 12.9627 37.7331 13.7246 38.3166C14.4955 38.9069 15.5524 39.153 16.6783 39.153C17.9704 39.153 19.0552 38.7942 19.8141 38.1328C20.5693 37.4746 21.0213 36.4997 21.0213 35.223ZM43.097 61.065V50.091C43.097 48.8955 43.4818 48.0269 44.0981 47.4586C44.7112 46.8933 45.5308 46.646 46.365 46.646H59.935C60.7692 46.646 61.5889 46.8933 62.202 47.4586C62.8183 48.0269 63.203 48.8955 63.203 50.091V61.065C63.203 62.2603 62.8185 63.1424 62.204 63.725C61.592 64.3052 60.7723 64.569 59.935 64.569H46.365C45.5871 64.569 44.769 64.3202 44.1432 63.7498C43.5134 63.1758 43.097 62.2932 43.097 61.065ZM55.923 52.356H50.377C50.0062 52.356 49.7099 52.4148 49.5063 52.5777C49.3123 52.7329 49.161 53.0176 49.161 53.572V58.056C49.161 58.3341 49.2812 58.5059 49.4806 58.6198C49.6948 58.7422 50.0081 58.8 50.377 58.8H55.923C56.2919 58.8 56.6052 58.7422 56.8194 58.6198C57.0189 58.5059 57.139 58.3341 57.139 58.056V53.572C57.139 53.0176 56.9877 52.7329 56.7937 52.5777C56.5902 52.4148 56.2939 52.356 55.923 52.356ZM69.8309 47.023V34.279C69.8309 33.0835 70.2157 32.2149 70.832 31.6466C71.4451 31.0813 72.2647 30.834 73.0989 30.834H85.1349C85.9691 30.834 86.7888 31.0813 87.4019 31.6466C88.0182 32.2149 88.4029 33.0835 88.4029 34.279V47.023C88.4029 48.2183 88.0184 49.1004 87.4039 49.683C86.7919 50.2632 85.9722 50.527 85.1349 50.527H73.0989C72.321 50.527 71.5029 50.2782 70.8771 49.7078C70.2473 49.1338 69.8309 48.2512 69.8309 47.023ZM81.1229 36.544H77.1109C76.7401 36.544 76.4438 36.6028 76.2402 36.7657C76.0462 36.9209 75.8949 37.2056 75.8949 37.76V44.014C75.8949 44.2921 76.0151 44.4639 76.2145 44.5778C76.4287 44.7002 76.742 44.758 77.1109 44.758H81.1229C81.4918 44.758 81.8051 44.7002 82.0193 44.5778C82.2188 44.4639 82.3389 44.2921 82.3389 44.014V37.76C82.3389 37.2056 82.1876 36.9209 81.9936 36.7657C81.79 36.6028 81.4938 36.544 81.1229 36.544ZM43.297 61.065V50.091C43.297 47.79 44.772 46.846 46.365 46.846H59.935C61.528 46.846 63.003 47.79 63.003 50.091V61.065C63.003 63.366 61.528 64.369 59.935 64.369H46.365C44.89 64.369 43.297 63.425 43.297 61.065ZM55.923 52.156H50.377C49.61 52.156 48.961 52.392 48.961 53.572V58.056C48.961 58.764 49.61 59 50.377 59H55.923C56.69 59 57.339 58.764 57.339 58.056V53.572C57.339 52.392 56.69 52.156 55.923 52.156ZM21.2213 35.223C21.2213 32.804 19.2743 31.211 16.8553 31.211C15.5573 31.211 12.2533 31.683 12.2533 35.341C12.2533 38.35 14.3773 39.353 16.6783 39.353C19.3333 39.353 21.2213 37.878 21.2213 35.223ZM70.0309 34.279V47.023C70.0309 49.383 71.6239 50.327 73.0989 50.327H85.1349C86.7279 50.327 88.2029 49.324 88.2029 47.023V34.279C88.2029 31.978 86.7279 31.034 85.1349 31.034H73.0989C71.5059 31.034 70.0309 31.978 70.0309 34.279ZM77.1109 36.344H81.1229C81.8899 36.344 82.5389 36.58 82.5389 37.76V44.014C82.5389 44.722 81.8899 44.958 81.1229 44.958H77.1109C76.3439 44.958 75.6949 44.722 75.6949 44.014V37.76C75.6949 36.58 76.3439 36.344 77.1109 36.344Z" fill="black"/>
<path fill-rule="evenodd" clip-rule="evenodd" d="M124.812 32.2222C134.096 32.2222 141.623 25.009 141.623 16.1111C141.623 7.21319 134.096 0 124.812 0C115.527 0 108 7.21319 108 16.1111C108 20.2138 109.6 23.9584 112.235 26.8028L108.729 31.9057L115.816 29.7244C118.417 31.3062 121.503 32.2222 124.812 32.2222Z" fill="#FF9927"/>
<path d="M118.757 12.6637C118.773 12.9716 118.854 13.3173 119.099 13.598C119.347 13.8832 119.733 14.0653 120.284 14.1048L120.284 14.1049L120.293 14.1053C120.664 14.1188 121.076 14.0321 121.407 13.8226C121.745 13.6085 122.001 13.2615 122.019 12.7804L122.019 12.7804L122.019 12.7757C122.033 12.0625 122.284 11.4774 122.703 11.0709C123.121 10.6643 123.725 10.4187 124.475 10.4187C125.314 10.4187 125.939 10.6261 126.349 10.937C126.754 11.2446 126.959 11.6604 126.959 12.1205C126.959 12.7038 126.826 13.115 126.577 13.4668C126.32 13.828 125.929 14.1444 125.372 14.5148L125.372 14.5149C125.312 14.5549 125.252 14.5948 125.192 14.6345C124.489 15.1012 123.81 15.5527 123.301 16.1334C122.735 16.7787 122.383 17.5783 122.383 18.7229C122.383 19.1475 122.561 19.5019 122.86 19.7453C123.155 19.9847 123.552 20.1054 123.985 20.1054C124.485 20.1054 124.909 19.9814 125.215 19.7509C125.526 19.5167 125.703 19.1795 125.703 18.7952C125.703 18.3822 125.784 18.0775 126.043 17.7434C126.315 17.3925 126.788 17.0021 127.605 16.4496C129.017 15.5382 130.25 14.2673 130.25 12.2169C130.25 10.9614 129.801 9.83294 128.841 9.02281C127.886 8.21685 126.455 7.75 124.532 7.75C122.746 7.75 121.267 8.25059 120.247 9.12334C119.223 9.99977 118.681 11.2378 118.757 12.6637ZM118.757 12.6637C118.757 12.6637 118.757 12.6636 118.757 12.6636L119.007 12.6506L118.757 12.6639C118.757 12.6639 118.757 12.6638 118.757 12.6637ZM122.066 22.5783C122.066 23.0283 122.236 23.4535 122.581 23.7641C122.924 24.0736 123.421 24.25 124.043 24.25C125.081 24.25 125.991 23.6045 125.991 22.5783C125.991 21.7195 125.194 20.9066 124.043 20.9066C123.48 20.9066 122.988 21.0638 122.632 21.3586C122.272 21.6565 122.066 22.0828 122.066 22.5783Z" fill="white" stroke="white" stroke-width="0.5"/>
</svg>
