<svg width="140" height="107" viewBox="0 0 140 107" fill="none" xmlns="http://www.w3.org/2000/svg">
<path d="M19.9232 63.884C19.7912 68.592 15.6992 70.088 12.5752 70.088C6.94323 70.088 5.22723 66.612 5.22723 63.664C5.22723 61.2 6.41523 57.416 11.1232 56.712C11.3432 55.304 11.9152 54.776 12.6632 54.776C13.3672 54.776 13.9832 55.172 14.2912 56.712C17.9432 57.372 20.0552 60.144 19.9232 63.884ZM14.7752 72.86V75.28H22.6952C24.0592 75.28 24.6752 76.072 24.6752 77.304C24.6752 78.36 24.0592 79.328 22.7832 79.328H2.27923C1.00323 79.328 0.387234 78.36 0.387234 77.304C0.387234 76.072 1.00323 75.28 2.36723 75.28H10.3752V73.036C10.3752 71.496 11.3872 71.144 12.5752 71.144C13.6312 71.144 14.7752 71.496 14.7752 72.86ZM15.9192 63.268C15.9192 61.464 14.4672 60.276 12.6632 60.276C11.6952 60.276 9.23123 60.628 9.23123 63.356C9.23123 65.6 10.8152 66.348 12.5312 66.348C14.5112 66.348 15.9192 65.248 15.9192 63.268ZM32.3825 82.54V74.356C32.3825 72.64 33.4825 71.936 34.6705 71.936H44.7905C45.9785 71.936 47.0785 72.64 47.0785 74.356V82.54C47.0785 84.256 45.9785 85.004 44.7905 85.004H34.6705C33.5705 85.004 32.3825 84.3 32.3825 82.54ZM37.5305 63.048L40.8745 66.172C41.7545 67.008 41.9305 68.46 41.0065 69.296C40.1705 70.044 38.8945 69.912 37.8385 68.9L34.7585 66.084C34.2745 65.688 34.0105 65.82 33.7025 66.128L30.0505 69.296C29.1705 70.132 27.7625 70.352 26.9265 69.428C25.8265 68.152 26.4425 67.008 27.3225 66.304C29.5665 64.412 32.6025 61.904 34.4065 59.396C34.7145 59 35.2425 57.9 34.2305 57.9H29.3465C27.9385 57.9 27.1025 57.284 27.1025 55.832C27.1025 54.556 28.0705 53.808 29.2585 53.808H36.2105C38.6305 53.808 39.5985 55.348 39.5545 57.152C39.5105 58.868 38.3225 60.672 37.3985 61.904C36.9145 62.564 37.0465 62.564 37.5305 63.048ZM48.9705 53.016V68.724C48.9705 69.956 48.0025 70.616 46.8145 70.572C45.7145 70.528 44.7025 70.044 44.7025 68.856V63.664C43.6905 63.796 42.8545 63.796 42.1505 63.664C41.1385 63.488 40.8745 62.696 40.8745 61.86C40.8745 61.112 41.1825 60.232 41.8865 59.924C42.4145 59.748 43.5145 59.66 44.7025 59.528V54.16C44.0425 53.676 43.5585 53.016 43.5585 52.312C43.5585 51.08 44.4825 50.156 45.7145 50.156C47.5185 50.156 48.5745 51.476 48.9705 53.016ZM41.7985 75.896H37.6625C37.0905 75.896 36.6065 76.072 36.6065 76.952V80.296C36.6065 80.824 37.0905 81 37.6625 81H41.7985C42.3705 81 42.8545 80.824 42.8545 80.296V76.952C42.8545 76.072 42.3705 75.896 41.7985 75.896ZM52.3196 72.068V62.564C52.3196 60.848 53.4196 60.144 54.6076 60.144H63.5836C64.7716 60.144 65.8716 60.848 65.8716 62.564V72.068C65.8716 73.784 64.7716 74.532 63.5836 74.532H54.6076C53.5076 74.532 52.3196 73.828 52.3196 72.068ZM75.5516 57.372V79.02C75.5516 80.252 74.5836 80.912 73.3956 80.868C72.2956 80.824 71.2836 80.34 71.2836 79.152V69.076H69.1716C67.6316 69.076 67.0156 68.02 67.0156 66.92C67.0156 65.864 67.7196 64.72 69.1716 64.72H71.2836V58.516C70.6236 58.032 70.1396 57.372 70.1396 56.668C70.1396 55.436 71.0636 54.512 72.2956 54.512C74.0996 54.512 75.1556 55.832 75.5516 57.372ZM60.5916 64.104H57.5996C57.0276 64.104 56.5436 64.28 56.5436 65.16V69.824C56.5436 70.352 57.0276 70.528 57.5996 70.528H60.5916C61.1636 70.528 61.6476 70.352 61.6476 69.824V65.16C61.6476 64.28 61.1636 64.104 60.5916 64.104Z" fill="black"/>
<path fill-rule="evenodd" clip-rule="evenodd" d="M110.667 56.2222C126.867 56.2222 140 43.6364 140 28.1111C140 12.5858 126.867 0 110.667 0C94.4664 0 81.3334 12.5858 81.3334 28.1111C81.3334 35.2697 84.1255 41.8033 88.723 46.7663L82.606 55.67L94.9715 51.8639C99.51 54.624 104.894 56.2222 110.667 56.2222Z" fill="#FF9927"/>
<path d="M112.099 25.4028L112.099 25.4029C111.996 25.4771 111.894 25.5508 111.793 25.6241C110.573 26.5035 109.42 27.3352 108.559 28.4021C107.614 29.5723 107.025 31.0176 107.025 33.1054C107.025 33.8282 107.301 34.4288 107.774 34.846C108.244 35.2604 108.891 35.4789 109.611 35.4789C110.45 35.4789 111.144 35.2525 111.633 34.852C112.126 34.4487 112.396 33.8807 112.396 33.241C112.396 32.423 112.548 31.7991 113.027 31.1271C113.517 30.4396 114.358 29.6919 115.771 28.655C118.191 26.9592 120.25 24.6341 120.25 20.9066C120.25 18.6143 119.497 16.5653 117.889 15.0916C116.282 13.6199 113.854 12.75 110.555 12.75C107.498 12.75 104.985 13.6806 103.265 15.2792C101.542 16.8801 100.634 19.1331 100.762 21.732C100.788 22.2786 100.92 22.8694 101.301 23.3448C101.689 23.8276 102.306 24.1562 103.229 24.2282L103.229 24.2283L103.239 24.2287C103.855 24.2531 104.532 24.0959 105.068 23.7275C105.611 23.3538 106.006 22.764 106.033 21.9544L106.033 21.9544L106.033 21.9501C106.057 20.5563 106.512 19.3997 107.276 18.5937C108.039 17.7894 109.127 17.3163 110.456 17.3163C111.929 17.3163 113.049 17.7111 113.795 18.3266C114.539 18.9394 114.928 19.7834 114.928 20.7259C114.928 21.8615 114.689 22.6815 114.23 23.3847C113.765 24.0958 113.063 24.7064 112.099 25.4028ZM106.478 40.3343C106.478 41.115 106.747 41.8491 107.299 42.3882C107.851 42.9279 108.664 43.25 109.71 43.25C111.46 43.25 112.893 42.0809 112.893 40.3343C112.893 38.8828 111.635 37.4187 109.71 37.4187C108.766 37.4187 107.957 37.7054 107.381 38.2225C106.803 38.7416 106.478 39.4772 106.478 40.3343Z" fill="white" stroke="white" stroke-width="0.5"/>
</svg>