<svg width="14" height="14" viewBox="0 0 14 14" fill="none" xmlns="http://www.w3.org/2000/svg">
<circle cx="7" cy="7" r="6.5" fill="white" stroke="#DEDEDE"/>
<path d="M7.63372 8.55857H6.40325C6.40647 8.26905 6.42898 8.01974 6.4708 7.81064C6.51584 7.59832 6.59144 7.40692 6.6976 7.23642C6.80697 7.06592 6.95173 6.89704 7.13188 6.72976C7.28307 6.59465 7.41497 6.46597 7.52756 6.34373C7.64015 6.22149 7.72862 6.09603 7.79295 5.96735C7.85729 5.83546 7.88946 5.68909 7.88946 5.52824C7.88946 5.34166 7.86051 5.18725 7.80261 5.06501C7.74792 4.93955 7.66428 4.84465 7.55169 4.78031C7.44231 4.71597 7.30398 4.6838 7.1367 4.6838C6.99838 4.6838 6.8697 4.71436 6.75067 4.77548C6.63165 4.83339 6.53353 4.92346 6.45633 5.0457C6.38234 5.16795 6.34374 5.32879 6.34052 5.52824H4.94116C4.95081 5.08752 5.05215 4.72401 5.24516 4.43771C5.44139 4.14819 5.70357 3.93426 6.0317 3.79593C6.35982 3.65439 6.72816 3.58362 7.1367 3.58362C7.58707 3.58362 7.9731 3.65761 8.29479 3.80559C8.61648 3.95035 8.86258 4.16427 9.03307 4.44736C9.20357 4.72723 9.28882 5.06822 9.28882 5.47034C9.28882 5.75021 9.23413 5.99952 9.12476 6.21827C9.01538 6.4338 8.87223 6.63486 8.6953 6.82144C8.51837 7.00802 8.32374 7.20104 8.11143 7.40048C7.92806 7.56455 7.80261 7.73665 7.73505 7.9168C7.67071 8.09695 7.63693 8.31087 7.63372 8.55857ZM6.25849 10.0496C6.25849 9.84373 6.32926 9.67323 6.4708 9.53812C6.61235 9.39979 6.80215 9.33063 7.0402 9.33063C7.27503 9.33063 7.46322 9.39979 7.60477 9.53812C7.74953 9.67323 7.82191 9.84373 7.82191 10.0496C7.82191 10.2491 7.74953 10.4179 7.60477 10.5563C7.46322 10.6946 7.27503 10.7638 7.0402 10.7638C6.80215 10.7638 6.61235 10.6946 6.4708 10.5563C6.32926 10.4179 6.25849 10.2491 6.25849 10.0496Z" fill="#DEDEDE"/>
</svg>